<svg id="Layer_1" data-name="Layer 1" xmlns="http://www.w3.org/2000/svg"  width="205.342" height="150.004" viewBox="0 0 109.108 96.486"><title>NewCoronaNewsLogo-Large</title><path d="M71.963.759A37.5,37.5,0,0,0,55.7,4.447a37.667,37.667,0,0,1,.016,67.943A37.655,37.655,0,1,0,71.963.759Z" transform="translate(-0.5 -0.759)" style="fill:#dbdbdb"/><circle cx="37.41" cy="37.66" r="37.41" style="fill:#6a8ebe"/><g style="opacity:0.2199999988079071"><path d="M64.352,11.972A37.4,37.4,0,1,0,75.317,38.436,37.41,37.41,0,0,0,64.352,11.972Zm7.574,24.767h-14.5a64.955,64.955,0,0,0-2.367-16.262,37.1,37.1,0,0,0,7.711-5.312A33.974,33.974,0,0,1,71.93,36.739ZM39.589,40.1H54.08a61.4,61.4,0,0,1-2.122,14.949A37.766,37.766,0,0,0,39.59,52.36ZM60.352,12.827A34.019,34.019,0,0,1,54,17.24a39,39,0,0,0-1.97-4.581,26.915,26.915,0,0,0-4.913-7.024A33.914,33.914,0,0,1,60.352,12.827ZM39.589,4.887c3.5.779,6.795,4,9.452,9.253a38.163,38.163,0,0,1,1.924,4.535,34.267,34.267,0,0,1-11.376,2.55ZM51.972,21.9a61.413,61.413,0,0,1,2.092,14.857H39.589V24.6a37.786,37.786,0,0,0,12.383-2.7ZM36.23,36.739H21.74a61.413,61.413,0,0,1,2.092-14.857,37.089,37.089,0,0,0,12.383,2.683v12.17Zm.015-31.852V21.225a34.182,34.182,0,0,1-11.376-2.55,38.163,38.163,0,0,1,1.924-4.535C29.452,8.888,32.752,5.665,36.245,4.887Zm-7.528.748A27.175,27.175,0,0,0,23.8,12.659a44.916,44.916,0,0,0-1.97,4.581,34.527,34.527,0,0,1-6.352-4.413,33.913,33.913,0,0,1,13.24-7.192Zm-15.65,9.53a37.7,37.7,0,0,0,7.711,5.314,64.366,64.366,0,0,0-2.367,16.262H3.905A33.974,33.974,0,0,1,13.067,15.165ZM3.905,40.1H18.411a64.872,64.872,0,0,0,2.4,16.354,36.763,36.763,0,0,0-7.681,5.283A33.921,33.921,0,0,1,3.905,40.1ZM15.54,64.071a34.147,34.147,0,0,1,6.322-4.382A41.378,41.378,0,0,0,23.8,64.178a27.274,27.274,0,0,0,4.917,7.039,34.082,34.082,0,0,1-13.177-7.146Zm20.7,7.879c-3.5-.779-6.8-4-9.452-9.253A39.248,39.248,0,0,1,24.9,58.254a33.7,33.7,0,0,1,11.345-2.535ZM23.877,55.05A61.4,61.4,0,0,1,21.752,40.1H36.245V52.36a37,37,0,0,0-12.368,2.687ZM39.6,71.95V55.719a34.075,34.075,0,0,1,11.348,2.535,39.249,39.249,0,0,1-1.9,4.443C46.395,67.95,43.1,71.172,39.6,71.95Zm7.528-.748a27.013,27.013,0,0,0,4.92-7.037,41.379,41.379,0,0,0,1.939-4.489,34.146,34.146,0,0,1,6.322,4.382A33.686,33.686,0,0,1,47.136,71.2Zm15.606-9.467a37.353,37.353,0,0,0-7.681-5.283,64.976,64.976,0,0,0,2.4-16.354h14.5A34.081,34.081,0,0,1,62.738,61.735Z" transform="translate(-0.5 -0.759)" style="fill:#dbdbdb"/></g><path d="M62.217,25.654c-.409-.237-.907-.068-1.478.5L45.887,40.965,39.131,26.691c-.425-.9-1.009-1.033-1.32-1.033s-.894.134-1.319,1.033L29.73,40.983,14.865,26.156c-.571-.57-1.069-.739-1.478-.5s-.512.752-.3,1.532l5.765,21.537a3.222,3.222,0,0,0,2.953,2.25h5.686c.045,0,.089.011.134.011a1.69,1.69,0,0,0,.172-.011H47.842a1.64,1.64,0,0,0,.3,0h5.673A3.221,3.221,0,0,0,56.752,48.7l5.766-21.518C62.729,26.407,62.627,25.891,62.217,25.654Z" transform="translate(-0.5 -0.759)" style="fill:#f1f1f1"/><path d="M27.628,51.486l-5.819-.01a3.738,3.738,0,0,1-3.431-2.6L12.6,27.316c-.342-1.278.1-1.844.536-2.094s1.145-.354,2.081.581L29.581,40.129l6.458-13.652a1.849,1.849,0,0,1,3.543,0l6.454,13.638L60.386,25.8c.936-.934,1.648-.831,2.082-.581h0c.434.25.878.817.536,2.094L57.237,48.833a3.734,3.734,0,0,1-3.4,2.641H48.146a1.821,1.821,0,0,1-.35,0h-20A1.187,1.187,0,0,1,27.628,51.486Zm-.134-1.01.134.01a1.127,1.127,0,0,0,.121-.008H47.842a1.642,1.642,0,0,0,.258,0h5.718a2.722,2.722,0,0,0,2.458-1.919l5.76-21.5c.081-.3.179-.826-.069-.969h0c-.255-.145-.656.2-.875.423L45.738,41.824,38.679,26.9c-.455-.963-1.28-.965-1.735,0L29.879,41.838,14.512,26.51c-.22-.22-.626-.572-.874-.423s-.151.669-.071.97L19.338,48.6a2.724,2.724,0,0,0,2.491,1.88Z" transform="translate(-0.5 -0.759)" style="fill:#6a8ebe"/><path d="M9.594,89.017a5.181,5.181,0,0,0-1.507-.911A4.64,4.64,0,0,0,6.417,87.8a3.685,3.685,0,0,0-2.757,1.087,4.233,4.233,0,0,0-.029,5.576A3.447,3.447,0,0,0,6.24,95.55a4.752,4.752,0,0,0,1.747-.324,5.542,5.542,0,0,0,1.591-.978v1.9a4.957,4.957,0,0,1-1.475.727,5.987,5.987,0,0,1-1.73.241,6.039,6.039,0,0,1-2.191-.389,5.161,5.161,0,0,1-2.929-2.891,5.834,5.834,0,0,1,0-4.278,5.291,5.291,0,0,1,2.94-2.909,5.827,5.827,0,0,1,2.15-.392,5.649,5.649,0,0,1,1.74.265,6.086,6.086,0,0,1,1.6.8Z" transform="translate(-0.5 -0.759)" style="fill:#dbdbdb"/><path d="M22.271,91.693a5.259,5.259,0,0,1-1.615,3.832,5.653,5.653,0,0,1-1.8,1.179,5.514,5.514,0,0,1-2.1.409,5.589,5.589,0,0,1-2.128-.409,5.487,5.487,0,0,1-1.791-1.179,5.266,5.266,0,0,1-1.2-1.74,5.372,5.372,0,0,1,1.2-5.937,5.478,5.478,0,0,1,1.793-1.172,5.784,5.784,0,0,1,4.24,0,5.473,5.473,0,0,1,3,2.937A5.323,5.323,0,0,1,22.271,91.693Zm-1.75,0a3.932,3.932,0,0,0-.286-1.489,3.86,3.86,0,0,0-.819-1.257,3.669,3.669,0,0,0-2.661-1.126A3.787,3.787,0,0,0,13.26,90.2a3.992,3.992,0,0,0-.283,1.5,3.918,3.918,0,0,0,.283,1.482,3.828,3.828,0,0,0,.819,1.25,3.674,3.674,0,0,0,2.676,1.126,3.635,3.635,0,0,0,1.433-.29,3.8,3.8,0,0,0,1.228-.84,3.88,3.88,0,0,0,1.109-2.732Z" transform="translate(-0.5 -0.759)" style="fill:#dbdbdb"/><path d="M25.773,92.215v4.624H24.2V86.5h2.343a7.338,7.338,0,0,1,1.6.134,2.509,2.509,0,0,1,.97.445,2.457,2.457,0,0,1,.741.967,3.187,3.187,0,0,1,.261,1.3,2.9,2.9,0,0,1-.6,1.945,2.642,2.642,0,0,1-1.772.843l3.558,4.7H29.4l-3.438-4.624Zm.1-1.306h.307a3.387,3.387,0,0,0,1.772-.307,1.259,1.259,0,0,0,.438-1.1,1.406,1.406,0,0,0-.469-1.2,3.088,3.088,0,0,0-1.74-.349h-.307Z" transform="translate(-0.5 -0.759)" style="fill:#dbdbdb"/><path d="M42.892,91.693a5.259,5.259,0,0,1-1.616,3.832,5.653,5.653,0,0,1-1.8,1.179,5.514,5.514,0,0,1-2.1.409,5.589,5.589,0,0,1-2.128-.409,5.487,5.487,0,0,1-1.791-1.179,5.266,5.266,0,0,1-1.2-1.74,5.372,5.372,0,0,1,1.2-5.937,5.478,5.478,0,0,1,1.793-1.172,5.784,5.784,0,0,1,4.24,0,5.473,5.473,0,0,1,2.993,2.94A5.323,5.323,0,0,1,42.892,91.693Zm-1.75,0a3.932,3.932,0,0,0-.286-1.489,3.86,3.86,0,0,0-.819-1.257,3.669,3.669,0,0,0-2.661-1.126A3.787,3.787,0,0,0,33.881,90.2a3.992,3.992,0,0,0-.283,1.5,3.918,3.918,0,0,0,.283,1.482,3.828,3.828,0,0,0,.819,1.25,3.674,3.674,0,0,0,2.676,1.126,3.635,3.635,0,0,0,1.433-.29,3.8,3.8,0,0,0,1.228-.84,3.88,3.88,0,0,0,1.109-2.732Z" transform="translate(-0.5 -0.759)" style="fill:#dbdbdb"/><path d="M44.819,96.839V86.091l6.565,6.318q.268.268.544.572t.579.685V86.5H54.06V97.238l-6.7-6.431q-.268-.261-.519-.551t-.476-.607v7.187Z" transform="translate(-0.5 -0.759)" style="fill:#dbdbdb"/><path d="M63.257,96.839l-1.172-2.661H57.991l-1.2,2.661H55.025l5.005-10.748,5,10.748ZM58.608,92.78h2.88L60.43,90.426q-.092-.226-.19-.519t-.2-.653q-.085.339-.18.632t-.193.54Z" transform="translate(-0.5 -0.759)" style="fill:#dbdbdb"/><path d="M70.366,96.839V86.091l6.564,6.322c.18.179.36.37.544.572s.377.431.58.685V86.5h1.552V97.242l-6.7-6.432q-.268-.261-.519-.551t-.476-.607v7.187Z" transform="translate(-0.5 -0.759)" style="fill:#dbdbdb"/><path d="M81.978,96.839V86.5h5.768v1.43H83.658v2.591h4.087V92H83.658v3.339h4.087v1.5Z" transform="translate(-0.5 -0.759)" style="fill:#dbdbdb"/><path d="M88.444,86.5H90.1l1.956,5.22q.19.512.321.9t.229.728q.248-.819.512-1.6c.024-.066.04-.111.049-.134L95.252,86.1l2.188,5.63q.156.409.294.819t.257.826q.071-.318.19-.7c.08-.254.183-.556.307-.9l1.945-5.259h1.673l-4,10.737L95.75,91.35q-.156-.4-.283-.758c-.084-.243-.16-.472-.225-.688q-.12.417-.241.78t-.247.7l-2.315,5.866Z" transform="translate(-0.5 -0.759)" style="fill:#dbdbdb"/><path d="M102.655,94.77,104,94.149a1.842,1.842,0,0,0,.7,1.055,2.178,2.178,0,0,0,1.3.363,1.662,1.662,0,0,0,1.189-.417,1.463,1.463,0,0,0,.44-1.116q0-.911-1.51-1.623c-.141-.071-.25-.123-.324-.156a7.3,7.3,0,0,1-2.277-1.508,2.474,2.474,0,0,1-.568-1.648,2.642,2.642,0,0,1,.858-2.047,3.2,3.2,0,0,1,2.252-.784,3.8,3.8,0,0,1,1.913.441,2.326,2.326,0,0,1,1.067,1.267l-1.312.678a2.2,2.2,0,0,0-.682-.717,1.6,1.6,0,0,0-.851-.226,1.567,1.567,0,0,0-1.077.353,1.2,1.2,0,0,0-.4.946q0,.932,1.75,1.74l.212.1a6.237,6.237,0,0,1,2.1,1.38,2.515,2.515,0,0,1,.572,1.684,3.041,3.041,0,0,1-.921,2.333,3.513,3.513,0,0,1-2.5.865,3.617,3.617,0,0,1-2.164-.607A2.838,2.838,0,0,1,102.655,94.77Z" transform="translate(-0.5 -0.759)" style="fill:#dbdbdb"/></svg>