<svg xmlns="http://www.w3.org/2000/svg" width="205.342" height="150.004" viewBox="0 0 205.342 150.004">
  <g id="Group_448" data-name="Group 448" transform="translate(-320 -43.063)">
    <g id="reach" transform="translate(320 43.063)">
      <path id="Path_299" data-name="Path 299" d="M150.09,75.089a9.9,9.9,0,0,0-9.721,8.12H126.1a41.012,41.012,0,0,0-10.9-26.091L125.318,47a9.874,9.874,0,1,0-2.548-2.626L112.6,54.541A41.007,41.007,0,0,0,86.5,43.9V29.619a9.887,9.887,0,1,0-3.658-.118V43.926A41.013,41.013,0,0,0,57.077,54.8L46.964,44.684a9.86,9.86,0,1,0-2.645,2.528L54.5,57.394A41,41,0,0,0,43.843,83.518H29.637a9.886,9.886,0,1,0-.144,3.658H43.867a41.01,41.01,0,0,0,10.824,25.712L44.635,122.944a9.874,9.874,0,1,0,2.548,2.626l10.1-10.1a41.005,41.005,0,0,0,25.863,10.691v14.215a9.881,9.881,0,1,0,3.658,0V126.161a41.01,41.01,0,0,0,26.041-10.856l10.064,10.064a9.877,9.877,0,1,0,2.609-2.565l-10.093-10.092A41.008,41.008,0,0,0,126.1,86.867h14.294a9.881,9.881,0,1,0,9.7-11.778ZM126.619,34.527a6.2,6.2,0,1,1-1.831,4.4,6.223,6.223,0,0,1,1.831-4.4ZM78.753,19.855a6.223,6.223,0,1,1,6.223,6.223A6.223,6.223,0,0,1,78.753,19.855ZM34.533,43.326a6.182,6.182,0,1,1,4.4,1.84A6.223,6.223,0,0,1,34.533,43.326ZM19.861,91.192a6.223,6.223,0,1,1,6.223-6.223A6.223,6.223,0,0,1,19.861,91.192Zm23.471,44.22a6.223,6.223,0,1,1-.2-8.977,1.76,1.76,0,0,0,.549.569A6.228,6.228,0,0,1,43.332,135.413ZM91.2,150.084a6.223,6.223,0,1,1-6.623-6.2,1.783,1.783,0,0,0,.8,0,6.226,6.226,0,0,1,5.824,6.2Zm44.221-23.471a6.182,6.182,0,1,1-4.4-1.84,6.223,6.223,0,0,1,4.4,1.84Zm-50.443-4.068a37.508,37.508,0,1,1,37.508-37.508,37.508,37.508,0,0,1-37.508,37.508ZM150.09,91.192a6.223,6.223,0,1,1,6.223-6.223,6.223,6.223,0,0,1-6.223,6.223Z" transform="translate(-9.971 -9.963)" fill="#bcbcc4"/>
      <path id="Path_300" data-name="Path 300" d="M211.114,169.811l-.006,0a29.2,29.2,0,0,0-20.936-9.792,1.808,1.808,0,0,0-.337-.008c-.188,0-.377-.007-.566-.007s-.378,0-.567.007a1.8,1.8,0,0,0-.335.008,29.206,29.206,0,0,0-20.938,9.794l-.011.009a1.823,1.823,0,0,0-.314.36,29.21,29.21,0,0,0,0,38.178,1.823,1.823,0,0,0,.314.36l.011.009a29.2,29.2,0,0,0,20.913,9.792,1.82,1.82,0,0,0,.233.016c.038,0,.075-.006.112-.008.194,0,.387.007.582.007s.388,0,.582-.007c.037,0,.074.008.112.008a1.821,1.821,0,0,0,.233-.016,29.2,29.2,0,0,0,20.913-9.792l0,0a1.824,1.824,0,0,0,.322-.366,29.21,29.21,0,0,0,0-38.176A1.825,1.825,0,0,0,211.114,169.811Zm-1.308,34.735a28.894,28.894,0,0,0-4.681-3.764,39.041,39.041,0,0,0,1.59-9.687h8.09A25.465,25.465,0,0,1,209.806,204.547ZM163.734,191.1h8.09a39.028,39.028,0,0,0,1.6,9.715,29.172,29.172,0,0,0-4.684,3.744A25.464,25.464,0,0,1,163.734,191.1Zm5-17.117a29.243,29.243,0,0,0,4.683,3.747,39.033,39.033,0,0,0-1.6,9.712h-8.09a25.465,25.465,0,0,1,5-13.459Zm22.361,8.349a28.892,28.892,0,0,0,10.744-2.746,35.649,35.649,0,0,1,1.212,7.856H191.1Zm0-3.667V164.531a23.915,23.915,0,0,1,9.557,11.561A25.258,25.258,0,0,1,191.1,178.661Zm-3.658-14.131v14.123a25.551,25.551,0,0,1-9.546-2.589A23.919,23.919,0,0,1,187.44,164.531Zm0,17.79v5.117H175.485a35.65,35.65,0,0,1,1.219-7.885,29.167,29.167,0,0,0,10.736,2.768ZM175.484,191.1H187.44v5.119a29.285,29.285,0,0,0-10.735,2.77A35.668,35.668,0,0,1,175.484,191.1Zm11.956,8.785V214a23.9,23.9,0,0,1-9.546-11.534A25.573,25.573,0,0,1,187.44,199.88ZM191.1,214V199.871a25.236,25.236,0,0,1,9.557,2.57A23.913,23.913,0,0,1,191.1,214Zm0-17.8V191.1h11.956a35.674,35.674,0,0,1-1.213,7.859A28.975,28.975,0,0,0,191.1,196.207Zm15.617-8.77a39.04,39.04,0,0,0-1.59-9.685,28.906,28.906,0,0,0,4.681-3.766,25.467,25.467,0,0,1,5,13.451Zm.694-16.228a25.27,25.27,0,0,1-3.571,3,28.7,28.7,0,0,0-6.123-9.117,25.661,25.661,0,0,1,9.695,6.114ZM180.825,165.1a28.688,28.688,0,0,0-6.114,9.094,25.548,25.548,0,0,1-3.576-2.988,25.662,25.662,0,0,1,9.689-6.107Zm-9.689,42.234a25.564,25.564,0,0,1,3.575-2.988,28.688,28.688,0,0,0,6.114,9.095,25.662,25.662,0,0,1-9.689-6.107Zm26.578,6.107a28.7,28.7,0,0,0,6.123-9.115,25.288,25.288,0,0,1,3.571,3A25.66,25.66,0,0,1,197.714,213.437Z" transform="translate(-114.265 -114.26)" fill="#1d1d23"/>
    </g>
    <text id="Corona_News" data-name="Corona News" transform="translate(441.342 145.634)" fill="#1d1d23" font-size="14" font-family="Roboto-Medium, Roboto" font-weight="500"><tspan x="0" y="0">Corona News</tspan></text>
  </g>
</svg>
