<svg id="Group_114" data-name="Group 114" xmlns="http://www.w3.org/2000/svg" width="36" height="36" viewBox="0 0 36 36">
  <path id="Path_287" data-name="Path 287" d="M5,0H31a5,5,0,0,1,5,5V31a5,5,0,0,1-5,5H5a5,5,0,0,1-5-5V5A5,5,0,0,1,5,0Z" fill="#f1f1f1"/>
  <g id="Group_152" data-name="Group 152" transform="translate(7 9)">
    <path id="Path_4" data-name="Path 4" d="M32.4,55.063a.55.55,0,0,0-.367-.135H30.421V53.819a.5.5,0,0,0-.522-.47H28.638V52.239a.5.5,0,0,0-.522-.47H24.55a.5.5,0,0,0-.522.47v1.109H22.766a.51.51,0,0,0-.515.394H21.142a.51.51,0,0,0-.515-.394h-1.26V52.239a.5.5,0,0,0-.522-.47H15.278a.5.5,0,0,0-.522.47v1.109H13.5a.5.5,0,0,0-.522.47v1.109H11.355a.5.5,0,0,0-.522.47v6a.5.5,0,0,0,.522.47h1.617v1.741a.5.5,0,0,0,.522.47h1.974v1.741a.5.5,0,0,0,.522.47h1.617v1.741a.5.5,0,0,0,.522.47h1.617V69.3a.5.5,0,0,0,.522.47h2.853a.5.5,0,0,0,.522-.47v-.793h1.617a.5.5,0,0,0,.522-.47V66.294H27.4a.5.5,0,0,0,.522-.47V64.082H29.9a.5.5,0,0,0,.522-.47V61.871h1.617a.5.5,0,0,0,.522-.47v-6A.446.446,0,0,0,32.4,55.063Z" transform="translate(-10.833 -51.769)" fill="#ff4784"/>
  </g>
</svg>
