<svg xmlns="http://www.w3.org/2000/svg" width="22" height="22" viewBox="0 0 22 22">
  <path id="help_1_" data-name="help (1)" d="M11.86,17.275H10.141V15.556H11.86Zm0-5.021A3.583,3.583,0,1,0,8.48,6.212,3.519,3.519,0,0,0,7.391,8.767H9.11A1.814,1.814,0,0,1,9.672,7.45a1.9,1.9,0,0,1,1.4-.529,1.856,1.856,0,0,1,.34,3.672,1.607,1.607,0,0,0-1.274,1.577v1.668H11.86Zm6.919,6.526A11,11,0,1,0,3.222,3.223,11,11,0,1,0,18.779,18.78ZM20.282,11A9.281,9.281,0,1,1,11,1.72,9.292,9.292,0,0,1,20.282,11Zm0,0" transform="translate(0 -0.001)" fill="#bcbcc4"/>
</svg>
